<?xml version="1.0" encoding="iso-8859-1"?>
<!-- Generator: Adobe Illustrator 19.0.0, SVG Export Plug-In . SVG Version: 6.00 Build 0)  -->
<svg version="1.1" id="Layer_1" xmlns="http://www.w3.org/2000/svg" xmlns:xlink="http://www.w3.org/1999/xlink" x="0px" y="0px"
	 viewBox="0 0 495 495" style="enable-background:new 0 0 495 495;" xml:space="preserve">
<g>
	<path style="fill:#9CDD05;" d="M382.43,39.999v78.965h-29.492c-10.869,1.841-19.761,12.367-19.761,23.391v14.656H278.92v60h123.813
		v60H284.247c-26.137,0-47.326,21.189-47.326,47.326s21.189,47.326,47.326,47.326v120.617C403.509,474.528,495,371.703,495,247.5
		C495,160.589,450.194,84.153,382.43,39.999z"/>
	<path style="fill:#CCFC5C;" d="M115.059,105.567H44.732C16.551,145.753,0,194.691,0,247.5c0,1.091,0.027,2.176,0.041,3.264h115.018
		v-92.315c14.603,0,26.441-11.838,26.441-26.441C141.5,117.405,129.662,105.567,115.059,105.567z"/>
	<path style="fill:#CCFC5C;" d="M8.65,312.524c18.867,69.467,67.216,126.792,130.794,157.695V361.786l-49.262-49.262H8.65z"/>
	<path style="fill:#006DF0;" d="M402.73,217.01v60H284.25c-14.83,0-28.07,6.82-36.75,17.5V80c40.34,0,74.07-28.11,82.78-65.8
		c18.49,6.56,35.98,15.26,52.15,25.8v78.96h-29.49c-10.87,1.85-19.76,12.37-19.76,23.39v14.66h-54.26v60H402.73z"/>
	<path style="fill:#9BC9FF;" d="M330.28,14.2C321.57,51.89,287.84,80,247.5,80V0C276.53,0,304.39,5.02,330.28,14.2z"/>
	<path style="fill:#006DF0;" d="M284.25,371.66v120.62c-11.99,1.79-24.26,2.72-36.75,2.72V354.16
		C256.18,364.84,269.42,371.66,284.25,371.66z"/>
	<path style="fill:#9BFBFF;" d="M247.5,0v80c-40.34,0-74.07-28.11-82.78-65.8C190.61,5.02,218.47,0,247.5,0z"/>
	<path style="fill:#2488FF;" d="M247.5,80v214.51c-6.61,8.14-10.58,18.52-10.58,29.83c0,11.3,3.97,21.68,10.58,29.82V495
		c-38.74,0-75.4-8.91-108.06-24.78V361.79l-49.26-49.27H8.65c-5.36-19.71-8.33-40.41-8.61-61.76h115.02v-92.31
		c14.6,0,26.44-11.84,26.44-26.44c0-14.6-11.84-26.44-26.44-26.44H44.73C74,63.83,115.82,31.55,164.72,14.2
		C173.43,51.89,207.16,80,247.5,80z"/>
</g>
<g>
</g>
<g>
</g>
<g>
</g>
<g>
</g>
<g>
</g>
<g>
</g>
<g>
</g>
<g>
</g>
<g>
</g>
<g>
</g>
<g>
</g>
<g>
</g>
<g>
</g>
<g>
</g>
<g>
</g>
</svg>
